HIERARCHY
ROOT Hips
{
	OFFSET 0.000000 0.000000 0.000000
	CHANNELS 6 Xposition Yposition Zposition Xrotation Yrotation Zrotation
	JOINT Thigh.L
	{
		OFFSET 0.054659 0.030799 -0.092269
		CHANNELS 3 Xrotation Yrotation Zrotation
		JOINT Shin.L
		{
			OFFSET 0.053851 0.015211 -0.413220
			CHANNELS 3 Xrotation Yrotation Zrotation
			JOINT Foot.L
			{
				OFFSET -0.041744 0.033169 -0.434640
				CHANNELS 3 Xrotation Yrotation Zrotation
				JOINT Toe.L
				{
					OFFSET 0.044973 -0.120043 -0.064204
					CHANNELS 3 Xrotation Yrotation Zrotation
					End Site
					{
						OFFSET 0.000000 0.050000 0.000000
					}
				}
			}
		}
	}
	JOINT Thigh.R
	{
		OFFSET -0.059980 0.027924 -0.102749
		CHANNELS 3 Xrotation Yrotation Zrotation
		JOINT Shin.R
		{
			OFFSET -0.043139 0.020842 -0.396803
			CHANNELS 3 Xrotation Yrotation Zrotation
			JOINT Foot.R
			{
				OFFSET 0.015600 0.021579 -0.443615
				CHANNELS 3 Xrotation Yrotation Zrotation
				JOINT Toe.R
				{
					OFFSET -0.037238 -0.120815 -0.064110
					CHANNELS 3 Xrotation Yrotation Zrotation
					End Site
					{
						OFFSET 0.000000 0.050000 0.000000
					}
				}
			}
		}
	}
	JOINT Spine
	{
		OFFSET -0.002169 0.019961 0.109951
		CHANNELS 3 Xrotation Yrotation Zrotation
		JOINT Spine.2
		{
			OFFSET 0.006912 0.003135 0.135047
			CHANNELS 3 Xrotation Yrotation Zrotation
			JOINT Chest
			{
				OFFSET -0.010444 -0.023259 0.049635
				CHANNELS 3 Xrotation Yrotation Zrotation
				JOINT Neck
				{
					OFFSET -0.009574 0.029034 0.163779
					CHANNELS 3 Xrotation Yrotation Zrotation
					JOINT Head
					{
						OFFSET 0.022485 -0.021883 0.164464
						CHANNELS 3 Xrotation Yrotation Zrotation
						End Site
						{
							OFFSET 0.000000 0.050000 0.000000
						}
					}
				}
				JOINT Clavicle.L
				{
					OFFSET 0.043504 0.008213 0.083777
					CHANNELS 3 Xrotation Yrotation Zrotation
					JOINT UpperArm.L
					{
						OFFSET 0.107518 0.014906 0.062060
						CHANNELS 3 Xrotation Yrotation Zrotation
						JOINT ForeArm.L
						{
							OFFSET 0.265723 0.035557 -0.075991
							CHANNELS 3 Xrotation Yrotation Zrotation
							JOINT Hand.L
							{
								OFFSET 0.265503 0.006072 0.021496
								CHANNELS 3 Xrotation Yrotation Zrotation
								JOINT Thumb1.L
								{
									OFFSET 0.154578 0.002735 0.009681
									CHANNELS 3 Xrotation Yrotation Zrotation
									JOINT Thumb2.L
									{
										OFFSET 0.029894 0.000684 0.002420
										CHANNELS 3 Xrotation Yrotation Zrotation
										End Site
										{
											OFFSET 0.024912 0.000570 0.002017
										}
									}
								}
								JOINT Index1.L
								{
									OFFSET 0.137578 0.002735 0.009681
									CHANNELS 3 Xrotation Yrotation Zrotation
									JOINT Index2.L
									{
										OFFSET 0.029894 0.000684 0.002420
										CHANNELS 3 Xrotation Yrotation Zrotation
										JOINT Index3.L
										{
											OFFSET 0.021923 0.000501 0.001775
											CHANNELS 3 Xrotation Yrotation Zrotation
											End Site
											{
												OFFSET 0.017937 0.000410 0.001452
											}
										}
									}
								}
								JOINT Middle1.L
								{
									OFFSET 0.119578 0.002735 0.009681
									CHANNELS 3 Xrotation Yrotation Zrotation
									JOINT Middle2.L
									{
										OFFSET 0.030891 0.000706 0.002501
										CHANNELS 3 Xrotation Yrotation Zrotation
										JOINT Middle3.L
										{
											OFFSET 0.021923 0.000501 0.001775
											CHANNELS 3 Xrotation Yrotation Zrotation
											End Site
											{
												OFFSET 0.017937 0.000410 0.001452
											}
										}
									}
								}
								JOINT Ring1.L
								{
									OFFSET 0.101578 0.002735 0.009681
									CHANNELS 3 Xrotation Yrotation Zrotation
									JOINT Ring2.L
									{
										OFFSET 0.028898 0.000661 0.002340
										CHANNELS 3 Xrotation Yrotation Zrotation
										JOINT Ring3.L
										{
											OFFSET 0.019930 0.000456 0.001614
											CHANNELS 3 Xrotation Yrotation Zrotation
											End Site
											{
												OFFSET 0.016940 0.000387 0.001372
											}
										}
									}
								}
								JOINT Pinky1.L
								{
									OFFSET 0.085578 0.002735 0.009681
									CHANNELS 3 Xrotation Yrotation Zrotation
									JOINT Pinky2.L
									{
										OFFSET 0.023916 0.000547 0.001936
										CHANNELS 3 Xrotation Yrotation Zrotation
										JOINT Pinky3.L
										{
											OFFSET 0.016940 0.000387 0.001372
											CHANNELS 3 Xrotation Yrotation Zrotation
											End Site
											{
												OFFSET 0.013951 0.000319 0.001129
											}
										}
									}
								}
							}
						}
					}
				}
				JOINT Clavicle.R
				{
					OFFSET -0.041693 0.014316 0.083281
					CHANNELS 3 Xrotation Yrotation Zrotation
					JOINT UpperArm.R
					{
						OFFSET -0.092850 0.009844 0.057559
						CHANNELS 3 Xrotation Yrotation Zrotation
						JOINT ForeArm.R
						{
							OFFSET -0.281951 0.022808 -0.042946
							CHANNELS 3 Xrotation Yrotation Zrotation
							JOINT Hand.R
							{
								OFFSET -0.262162 0.018746 -0.003385
								CHANNELS 3 Xrotation Yrotation Zrotation
								JOINT Thumb1.R
								{
									OFFSET -0.154684 0.008558 -0.001545
									CHANNELS 3 Xrotation Yrotation Zrotation
									JOINT Thumb2.R
									{
										OFFSET -0.029921 0.002139 -0.000386
										CHANNELS 3 Xrotation Yrotation Zrotation
										End Site
										{
											OFFSET -0.024934 0.001783 -0.000322
										}
									}
								}
								JOINT Index1.R
								{
									OFFSET -0.137684 0.008558 -0.001545
									CHANNELS 3 Xrotation Yrotation Zrotation
									JOINT Index2.R
									{
										OFFSET -0.029921 0.002139 -0.000386
										CHANNELS 3 Xrotation Yrotation Zrotation
										JOINT Index3.R
										{
											OFFSET -0.021942 0.001569 -0.000283
											CHANNELS 3 Xrotation Yrotation Zrotation
											End Site
											{
												OFFSET -0.017953 0.001284 -0.000232
											}
										}
									}
								}
								JOINT Middle1.R
								{
									OFFSET -0.119684 0.008558 -0.001545
									CHANNELS 3 Xrotation Yrotation Zrotation
									JOINT Middle2.R
									{
										OFFSET -0.030918 0.002211 -0.000399
										CHANNELS 3 Xrotation Yrotation Zrotation
										JOINT Middle3.R
										{
											OFFSET -0.021942 0.001569 -0.000283
											CHANNELS 3 Xrotation Yrotation Zrotation
											End Site
											{
												OFFSET -0.017953 0.001284 -0.000232
											}
										}
									}
								}
								JOINT Ring1.R
								{
									OFFSET -0.101684 0.008558 -0.001545
									CHANNELS 3 Xrotation Yrotation Zrotation
									JOINT Ring2.R
									{
										OFFSET -0.028924 0.002068 -0.000373
										CHANNELS 3 Xrotation Yrotation Zrotation
										JOINT Ring3.R
										{
											OFFSET -0.019947 0.001426 -0.000258
											CHANNELS 3 Xrotation Yrotation Zrotation
											End Site
											{
												OFFSET -0.016955 0.001212 -0.000219
											}
										}
									}
								}
								JOINT Pinky1.R
								{
									OFFSET -0.085684 0.008558 -0.001545
									CHANNELS 3 Xrotation Yrotation Zrotation
									JOINT Pinky2.R
									{
										OFFSET -0.023937 0.001712 -0.000309
										CHANNELS 3 Xrotation Yrotation Zrotation
										JOINT Pinky3.R
										{
											OFFSET -0.016955 0.001212 -0.000219
											CHANNELS 3 Xrotation Yrotation Zrotation
											End Site
											{
												OFFSET -0.013963 0.000998 -0.000180
											}
										}
									}
								}
							}
						}
					}
				}
			}
		}
	}
}
MOTION
Frames: 4
Frame Time: 0.04166667
-0.054484 1.627405 1.038869 -7.252642 4.911371 5.762690 4.991964 -3.670539 -0.634213 50.651954 -3.077740 -12.986034 -0.903529 5.227120 9.032964 1.723542 -5.128347 -0.144977 -22.176038 -8.270175 4.541305 28.682703 -4.320302 -2.889061 -4.273292 1.933470 -7.951092 1.489327 -0.567795 -0.025224 9.064052 -4.838893 -3.381190 2.990758 -5.392229 -4.515577 -2.354424 2.647366 -1.331950 8.999513 2.601768 6.512127 14.834224 3.669956 10.964362 3.883859 19.564825 -1.952227 14.652845 47.875738 -30.600919 10.366538 -5.389845 -28.584228 -0.632123 -2.544555 -9.096761 0.000000 0.000000 0.000000 0.000000 0.000000 0.000000 0.000000 0.000000 0.000000 0.000000 0.000000 0.000000 0.000000 0.000000 0.000000 0.000000 0.000000 0.000000 0.000000 0.000000 0.000000 0.000000 0.000000 0.000000 0.000000 0.000000 0.000000 0.000000 0.000000 0.000000 0.000000 0.000000 0.000000 0.000000 0.000000 0.000000 0.000000 0.000000 0.000000 0.000000 0.000000 0.000000 3.481118 -18.480390 -0.896383 24.731674 -48.323602 19.879673 6.695786 -0.512226 16.846005 -3.192851 -3.516041 3.549743 0.000000 0.000000 0.000000 0.000000 0.000000 0.000000 0.000000 0.000000 0.000000 0.000000 0.000000 0.000000 0.000000 0.000000 0.000000 0.000000 0.000000 0.000000 0.000000 0.000000 0.000000 0.000000 0.000000 0.000000 0.000000 0.000000 0.000000 0.000000 0.000000 0.000000 0.000000 0.000000 0.000000 0.000000 0.000000 0.000000 0.000000 0.000000 0.000000 0.000000 0.000000 0.000000
-0.053414 1.645992 1.049310 -7.329297 4.947353 4.680740 -1.626485 -3.431113 -1.876377 57.255997 -1.855078 -9.635477 -0.369264 4.336576 10.058598 1.710170 -5.015484 -0.197109 -17.338551 -9.227355 4.292973 26.090114 -3.278481 -1.693004 -5.445210 2.909385 -7.356850 1.341545 -0.907739 -0.142979 9.600784 -5.158413 -1.820717 2.707493 -4.968285 -4.292353 -2.257906 2.473553 -1.138757 8.744728 2.165043 5.783059 15.138667 3.431039 10.058931 3.894206 20.142483 -1.403649 15.308012 48.600512 -29.114671 12.277554 -5.069801 -27.191661 -0.605570 -1.596219 -8.528313 0.000000 0.000000 0.000000 0.000000 0.000000 0.000000 0.000000 0.000000 0.000000 0.000000 0.000000 0.000000 0.000000 0.000000 0.000000 0.000000 0.000000 0.000000 0.000000 0.000000 0.000000 0.000000 0.000000 0.000000 0.000000 0.000000 0.000000 0.000000 0.000000 0.000000 0.000000 0.000000 0.000000 0.000000 0.000000 0.000000 0.000000 0.000000 0.000000 0.000000 0.000000 0.000000 3.025325 -18.141608 -0.564534 24.245866 -48.338202 19.859965 6.611823 -0.299087 18.371730 -4.290752 -2.847871 3.739574 0.000000 0.000000 0.000000 0.000000 0.000000 0.000000 0.000000 0.000000 0.000000 0.000000 0.000000 0.000000 0.000000 0.000000 0.000000 0.000000 0.000000 0.000000 0.000000 0.000000 0.000000 0.000000 0.000000 0.000000 0.000000 0.000000 0.000000 0.000000 0.000000 0.000000 0.000000 0.000000 0.000000 0.000000 0.000000 0.000000 0.000000 0.000000 0.000000 0.000000 0.000000 0.000000
-0.050252 1.662986 1.061115 -7.611712 4.414607 3.475743 -7.999551 -2.637161 -3.203366 60.819761 -0.160961 -7.139086 -1.856285 2.726736 11.055157 1.622696 -4.810918 -0.235338 -11.241752 -9.440514 3.737609 21.539510 -1.889562 -0.326137 -6.084030 3.073078 -6.811440 1.107496 -1.430021 -0.330285 9.844633 -4.840725 0.204320 2.794960 -4.592534 -4.127397 -2.407123 2.382069 -0.865653 9.246579 1.783495 5.258754 15.226556 3.028111 9.122210 4.255102 20.648863 -0.855308 15.888212 48.889541 -27.599899 14.318461 -4.216351 -25.346803 -0.642879 -0.462897 -8.480375 0.000000 0.000000 0.000000 0.000000 0.000000 0.000000 0.000000 0.000000 0.000000 0.000000 0.000000 0.000000 0.000000 0.000000 0.000000 0.000000 0.000000 0.000000 0.000000 0.000000 0.000000 0.000000 0.000000 0.000000 0.000000 0.000000 0.000000 0.000000 0.000000 0.000000 0.000000 0.000000 0.000000 0.000000 0.000000 0.000000 0.000000 0.000000 0.000000 0.000000 0.000000 0.000000 2.581190 -17.626628 -0.296718 24.100035 -48.561861 20.227045 6.818302 0.130038 20.497376 -5.475390 -1.981078 4.338033 0.000000 0.000000 0.000000 0.000000 0.000000 0.000000 0.000000 0.000000 0.000000 0.000000 0.000000 0.000000 0.000000 0.000000 0.000000 0.000000 0.000000 0.000000 0.000000 0.000000 0.000000 0.000000 0.000000 0.000000 0.000000 0.000000 0.000000 0.000000 0.000000 0.000000 0.000000 0.000000 0.000000 0.000000 0.000000 0.000000 0.000000 0.000000 0.000000 0.000000 0.000000 0.000000
-0.042201 1.683183 1.071434 -7.251645 3.014416 2.163373 -14.292809 -1.440619 -4.511784 59.347043 2.208084 -5.052896 -4.091211 0.607586 11.904385 1.497592 -4.306359 -0.311042 -4.078885 -8.571915 2.601388 14.118012 -0.183614 1.418309 -5.762717 2.212635 -6.200343 0.708211 -1.992384 -0.759296 9.572237 -3.846564 2.347933 3.282263 -4.114608 -3.797360 -3.120544 2.468979 -0.643301 10.026126 1.375719 4.701049 14.898031 2.185295 8.277051 5.191167 21.544805 -0.206082 15.796208 48.609994 -25.435458 15.435279 -3.148348 -23.072997 -0.299107 0.252457 -8.924382 0.000000 0.000000 0.000000 0.000000 0.000000 0.000000 0.000000 0.000000 0.000000 0.000000 0.000000 0.000000 0.000000 0.000000 0.000000 0.000000 0.000000 0.000000 0.000000 0.000000 0.000000 0.000000 0.000000 0.000000 0.000000 0.000000 0.000000 0.000000 0.000000 0.000000 0.000000 0.000000 0.000000 0.000000 0.000000 0.000000 0.000000 0.000000 0.000000 0.000000 0.000000 0.000000 2.555061 -16.723996 0.083360 24.153219 -49.104844 21.253673 6.850902 0.935844 23.437901 -6.715675 -1.654854 5.548570 0.000000 0.000000 0.000000 0.000000 0.000000 0.000000 0.000000 0.000000 0.000000 0.000000 0.000000 0.000000 0.000000 0.000000 0.000000 0.000000 0.000000 0.000000 0.000000 0.000000 0.000000 0.000000 0.000000 0.000000 0.000000 0.000000 0.000000 0.000000 0.000000 0.000000 0.000000 0.000000 0.000000 0.000000 0.000000 0.000000 0.000000 0.000000 0.000000 0.000000 0.000000 0.000000
